<svg xmlns="http://www.w3.org/2000/svg" viewBox="0 0 100 100" width="100%" height="100%">
  <rect x="10" y="20" width="80" height="60" rx="4" fill="#2d3748" />
  <rect x="15" y="25" width="70" height="20" rx="2" fill="#e2e8f0" stroke="#4a5568" stroke-width="2" />
  <text x="50" y="38" font-family="'Roboto', sans-serif" font-size="8" font-weight="bold" fill="#2d3748" text-anchor="middle">ESP32</text>
  <!-- Pins -->
  <g fill="#d69e2e">
    <rect x="8" y="50" width="5" height="2" />
    <rect x="8" y="55" width="5" height="2" />
    <rect x="8" y="60" width="5" height="2" />
    <rect x="8" y="65" width="5" height="2" />
    <rect x="8" y="70" width="5" height="2" />
    <rect x="8" y="75" width="5" height="2" />
    
    <rect x="87" y="50" width="5" height="2" />
    <rect x="87" y="55" width="5" height="2" />
    <rect x="87" y="60" width="5" height="2" />
    <rect x="87" y="65" width="5" height="2" />
    <rect x="87" y="70" width="5" height="2" />
    <rect x="87" y="75" width="5" height="2" />
  </g>
  <rect x="40" y="50" width="20" height="20" fill="#1a202c" rx="2" />
  <circle cx="50" cy="60" r="5" fill="#4a5568" />
</svg>
