<svg xmlns="http://www.w3.org/2000/svg" viewBox="0 0 100 100" width="100%" height="100%">
  <rect x="5" y="30" width="90" height="40" rx="2" fill="#475569" stroke="#1e293b" stroke-width="2" />
  
  <!-- Ports -->
  <g fill="#0f172a" stroke="#94a3b8" stroke-width="1">
    <rect x="12" y="42" width="8" height="12" rx="1" />
    <rect x="22" y="42" width="8" height="12" rx="1" />
    <rect x="32" y="42" width="8" height="12" rx="1" />
    <rect x="42" y="42" width="8" height="12" rx="1" />
    
    <rect x="52" y="42" width="8" height="12" rx="1" />
    <rect x="62" y="42" width="8" height="12" rx="1" />
    <rect x="72" y="42" width="8" height="12" rx="1" />
    <rect x="82" y="42" width="8" height="12" rx="1" />
  </g>
  
  <!-- Green LEDs above ports -->
  <g fill="#03DAC6">
    <circle cx="16" cy="38" r="1" />
    <circle cx="26" cy="38" r="1" />
    <circle cx="36" cy="38" r="1" />
    <circle cx="46" cy="38" r="1" />
    <circle cx="56" cy="38" r="1" />
    <circle cx="66" cy="38" r="1" />
    <circle cx="76" cy="38" r="1" />
    <circle cx="86" cy="38" r="1" />
  </g>
</svg>
